<svg id="Laag_1" data-name="Laag 1" xmlns="http://www.w3.org/2000/svg" viewBox="0 0 200.05 105.6">
  <defs>
    <style>
      .cls-1, .cls-2 {
        fill: #1d1d1b;
      }

      .cls-2 {
        stroke: #1d1d1b;
        stroke-miterlimit: 10;
        stroke-width: 0.97px;
      }
    </style>
  </defs>
  <title>kj_logo</title>
  <g>
    <g>
      <path class="cls-1" d="M194.68,263.37l-2.8-7.66h0.8l2.36,6.47,2.39-6.48h0.8l-2.82,7.67h-0.75Z" transform="translate(-141.55 -169.88)"/>
      <path class="cls-1" d="M201.55,255.7v7.67h-0.76V255.7h0.76Z" transform="translate(-141.55 -169.88)"/>
      <path class="cls-1" d="M205.46,255.7l4.61,6.46V255.7h0.76v7.67h-0.9l-4.5-6.3v6.3h-0.76V255.7h0.78Z" transform="translate(-141.55 -169.88)"/>
      <path class="cls-1" d="M216.08,256.45v6.91h-0.76v-6.91h-1.86V255.7h4.46v0.75h-1.85Z" transform="translate(-141.55 -169.88)"/>
      <path class="cls-1" d="M223.07,255.7l2.79,7.67h-0.8l-1.17-3.22h-2.29l-1.19,3.22h-0.81l2.82-7.67h0.66Zm0.53,3.69-0.87-2.4-0.87,2.4h1.74Z" transform="translate(-141.55 -169.88)"/>
      <path class="cls-1" d="M234.73,262.36a3.74,3.74,0,0,1-2.67,1.1,3.92,3.92,0,0,1,0-7.85,4,4,0,0,1,2.78,1.16l-0.57.51a3.26,3.26,0,0,0-2.21-.89,3.16,3.16,0,1,0,0,6.31,2.94,2.94,0,0,0,1.91-.64v-2.33h0.76v2.63Z" transform="translate(-141.55 -169.88)"/>
      <path class="cls-1" d="M241.75,255.7v0.75H238.5v2.7h3.25v0.76H238.5v2.69h3.25v0.76h-4V255.7h4Z" transform="translate(-141.55 -169.88)"/>
      <path class="cls-1" d="M251,255.7a4,4,0,0,1,2.93,1.06,3.94,3.94,0,0,1,0,5.55,4,4,0,0,1-2.93,1.06h-1.53V255.7H251Zm-0.77.77v6.13H251a3.28,3.28,0,0,0,2.37-.83,3.17,3.17,0,0,0,0-4.47,3.3,3.3,0,0,0-2.37-.82h-0.77Z" transform="translate(-141.55 -169.88)"/>
      <path class="cls-1" d="M261.89,255.7v0.75h-3.25v2.7h3.25v0.76h-3.25v2.69h3.25v0.76h-4V255.7h4Z" transform="translate(-141.55 -169.88)"/>
      <path class="cls-1" d="M267.08,259.3a3.27,3.27,0,0,1-1.31-.76,1.72,1.72,0,0,1,0-2.42,1.73,1.73,0,0,1,2.44,0,2,2,0,0,1,.44.77l-0.69.27a1.44,1.44,0,0,0-.29-0.51,1,1,0,0,0-1.37,1.37,2.73,2.73,0,0,0,.8.52,3.77,3.77,0,0,1,1.54.92,2.34,2.34,0,1,1-3.31,3.31,2.46,2.46,0,0,1-.68-1.42l0.73-.26a1.86,1.86,0,0,0,.48,1.15,1.59,1.59,0,0,0,2.26-2.25A3.17,3.17,0,0,0,267.08,259.3Z" transform="translate(-141.55 -169.88)"/>
      <path class="cls-1" d="M272.94,255.7v7.67h-0.76V255.7h0.76Z" transform="translate(-141.55 -169.88)"/>
      <path class="cls-1" d="M282.47,262.36a3.73,3.73,0,0,1-2.67,1.1,3.92,3.92,0,0,1,0-7.85,4,4,0,0,1,2.78,1.16l-0.57.51a3.26,3.26,0,0,0-2.21-.89,3.16,3.16,0,1,0,0,6.31,2.93,2.93,0,0,0,1.91-.64v-2.33h0.76v2.63Z" transform="translate(-141.55 -169.88)"/>
      <path class="cls-1" d="M286.24,255.7l4.61,6.46V255.7h0.76v7.67h-0.9l-4.5-6.3v6.3h-0.76V255.7h0.78Z" transform="translate(-141.55 -169.88)"/>
    </g>
    <line class="cls-2" x1="57.62" y1="103.81" x2="75.55" y2="103.81"/>
    <line class="cls-2" x1="125.42" y1="103.81" x2="143.35" y2="103.81"/>
    <g>
      <path class="cls-1" d="M228.5,268.2a1.42,1.42,0,0,1,1,.26,1.23,1.23,0,0,1,.51,1.08,1.76,1.76,0,0,1-.72,1.29,3.6,3.6,0,0,1-1.69.83,4.48,4.48,0,0,1-.24,2,3.19,3.19,0,0,1-3.16,1.84,2.43,2.43,0,0,1-1.85-.64,1.61,1.61,0,0,1-.14-2,1.07,1.07,0,0,1,.83-0.48,0.84,0.84,0,0,1,.67.22,0.73,0.73,0,0,1,.23.53,0.48,0.48,0,0,1-.09.3l-0.32.37a0.53,0.53,0,0,0-.11.34,0.57,0.57,0,0,0,.66.63h0.18a1.52,1.52,0,0,0,1.23-.61,5.34,5.34,0,0,0,.34-2.34v-0.26a2.83,2.83,0,0,1-1.67-1.13,1.2,1.2,0,0,1-.23-0.64,0.25,0.25,0,0,1,.22-0.29h0.11a0.31,0.31,0,0,1,.3.19l0.13,0.38a1.71,1.71,0,0,0,1.19,1,3.45,3.45,0,0,1,1-2.13A2.64,2.64,0,0,1,228.5,268.2Zm-1,3a2.14,2.14,0,0,0,1.25-.76,1.41,1.41,0,0,0,.36-0.83q0-.82-0.63-0.82a0.88,0.88,0,0,0-.63.39,2,2,0,0,0-.38,1.45Q227.52,271.19,227.52,271.16Z" transform="translate(-141.55 -169.88)"/>
      <path class="cls-1" d="M227.89,273.69a0.2,0.2,0,0,1-.09-0.31c0.13-.14.38-0.46,0.78-1l0.61-.88a1.35,1.35,0,0,1,.53-0.53l0.3-.07a0.25,0.25,0,0,1,.18.11,1.44,1.44,0,0,1,.41.7,3.72,3.72,0,0,1-.38,1.1,3.52,3.52,0,0,0-.36,1,0.08,0.08,0,0,0,.08.1,1.24,1.24,0,0,0,.47-0.39,1.34,1.34,0,0,1,.62-0.48,0.17,0.17,0,0,1,.2.18,0.63,0.63,0,0,1-.1.27,4.55,4.55,0,0,1-1.06,1.06,2.62,2.62,0,0,1-1.3.71,0.62,0.62,0,0,1-.6-0.57,2.06,2.06,0,0,1,.18-0.78c0.06-.16.28-0.61,0.65-1.37-0.25.31-.53,0.65-0.85,1A0.46,0.46,0,0,1,227.89,273.69Zm3.84-4.88a0.5,0.5,0,0,1,.17.43,1.21,1.21,0,0,1-.31.82,1,1,0,0,1-.75.35,0.76,0.76,0,0,1-.46-0.14,0.54,0.54,0,0,1-.19-0.46,1.31,1.31,0,0,1,.3-0.8,0.86,0.86,0,0,1,.71-0.37A0.88,0.88,0,0,1,231.73,268.81Z" transform="translate(-141.55 -169.88)"/>
      <path class="cls-1" d="M230.71,273.81c-0.07,0-.11,0-0.11-0.07a0.51,0.51,0,0,1,.09-0.23q0.49-.6,1.21-1.55a1.91,1.91,0,0,1,.94-1,0.72,0.72,0,0,1,.34.22,0.75,0.75,0,0,1,.21.35,1.29,1.29,0,0,1,0,.66,2.74,2.74,0,0,1-.35.61l0.61-.57a7,7,0,0,1,1-.8l0.42-.26a0.75,0.75,0,0,1,.37-0.13,0.64,0.64,0,0,1,.49.32,0.25,0.25,0,0,1,0,.14,3.51,3.51,0,0,1-.44,1.07,5.92,5.92,0,0,0-.62,1.39,0.07,0.07,0,0,0,.08.09,1.46,1.46,0,0,0,.75-0.44l0.21-.24a0.35,0.35,0,0,1,.22-0.16c0.09,0,.13.07,0.13,0.2a0.71,0.71,0,0,1-.23.42,8.73,8.73,0,0,1-.79.73,4.64,4.64,0,0,1-.87.64,1.2,1.2,0,0,1-.48.1,0.52,0.52,0,0,1-.61-0.42,5.46,5.46,0,0,1,.85-2.13,0.23,0.23,0,0,0,0-.11s0,0-.07,0a0.51,0.51,0,0,0-.34.18c-0.12.12-.35,0.38-0.7,0.78s-0.67.79-.81,1a2.32,2.32,0,0,1-.56.56,1.08,1.08,0,0,1-.59.24,0.3,0.3,0,0,1-.34-0.35,0.83,0.83,0,0,1,.15-0.4l0.24-.41,0.82-1.65A5.13,5.13,0,0,1,230.71,273.81Z" transform="translate(-141.55 -169.88)"/>
      <path class="cls-1" d="M236.39,273.51a0.61,0.61,0,0,1-.35.24,0.2,0.2,0,0,1-.15-0.08,0.26,0.26,0,0,1-.07-0.17,0.37,0.37,0,0,1,.18-0.24,7.28,7.28,0,0,0,.64-0.69,9.78,9.78,0,0,1,1-1.06A2,2,0,0,1,239,271a1.57,1.57,0,0,1,.59.11,0.66,0.66,0,0,1,.27.17,0.84,0.84,0,0,1,.22.56,1,1,0,0,1-.22.59,0.73,0.73,0,0,1-.57.34,0.39,0.39,0,0,1-.45-0.42,0.53,0.53,0,0,1,.07-0.27,0.44,0.44,0,0,1,.34-0.23,0.34,0.34,0,0,0-.23-0.08,1.74,1.74,0,0,0-1,1.14,2.77,2.77,0,0,0-.37,1.14,0.37,0.37,0,0,0,.37.45,1.34,1.34,0,0,0,.67-0.23,2.94,2.94,0,0,0,.63-0.51,4,4,0,0,1,.49-0.46,0.46,0.46,0,0,1,.17-0.09,0.3,0.3,0,0,1,.17.09,0.11,0.11,0,0,1,0,.09,2,2,0,0,1-.66.82,3.39,3.39,0,0,1-2.2,1.12,1.09,1.09,0,0,1-.55-0.14,1.21,1.21,0,0,1-.49-0.55,0.87,0.87,0,0,1-.11-0.52,2,2,0,0,1,.06-0.31A0.68,0.68,0,0,1,236.39,273.51Z" transform="translate(-141.55 -169.88)"/>
      <path class="cls-1" d="M241.31,274c0,0.34.09,0.52,0.37,0.53a1.31,1.31,0,0,0,.67-0.23,3.23,3.23,0,0,0,.64-0.51,3.28,3.28,0,0,1,.48-0.46,0.5,0.5,0,0,1,.15-0.08,0.36,0.36,0,0,1,.19.07,0.11,0.11,0,0,1,0,.09,1.9,1.9,0,0,1-.66.81,3.45,3.45,0,0,1-2.21,1.12,1.1,1.1,0,0,1-.54-0.13,1.17,1.17,0,0,1-.5-0.55,0.87,0.87,0,0,1-.11-0.52c0-.16,0-0.26.06-0.31a0.64,0.64,0,0,1,.21-0.27,0.71,0.71,0,0,1-.35.24,0.2,0.2,0,0,1-.16-0.08,0.26,0.26,0,0,1-.07-0.17,0.35,0.35,0,0,1,.19-0.24,6.84,6.84,0,0,0,.62-0.69,6.23,6.23,0,0,1,1.06-1,2.37,2.37,0,0,1,1.37-.58,0.85,0.85,0,0,1,.63.24,0.78,0.78,0,0,1,.26.56,1.68,1.68,0,0,1-.56,1A4.13,4.13,0,0,1,241.31,274Zm0.64-.95a1.57,1.57,0,0,0,.64-0.52,0.94,0.94,0,0,0,.29-0.65c0-.1,0-0.15-0.11-0.15a1.43,1.43,0,0,0-.64.61,1.11,1.11,0,0,0-.32.58A0.12,0.12,0,0,0,241.95,273.08Z" transform="translate(-141.55 -169.88)"/>
      <path class="cls-1" d="M246.78,271.7a2.2,2.2,0,0,1-.83.26c-0.18,0-.27-0.06-0.27-0.19s0-.15.14-0.42a0.77,0.77,0,0,1,.33-0.38,10,10,0,0,0,1.47-.53,3.8,3.8,0,0,0,1.42-1.06,0.34,0.34,0,0,1,.24-0.09,0.45,0.45,0,0,1,.3.07,0.27,0.27,0,0,1,.1.23,0.78,0.78,0,0,1-.18.44,8.76,8.76,0,0,0-.6,1.08l-0.66,1.36q-0.2.4-.51,1.28a6.15,6.15,0,0,1-.35.88,1.89,1.89,0,0,1-.78.52,1.37,1.37,0,0,1-.52.12c-0.22,0-.34-0.08-0.34-0.23a8.26,8.26,0,0,1,.76-1.91,18.59,18.59,0,0,1,1-1.77Q247.33,271.45,246.78,271.7Z" transform="translate(-141.55 -169.88)"/>
      <path class="cls-1" d="M249.13,273.43a0.48,0.48,0,0,1,.35.21,0.36,0.36,0,0,1,.08.32,0.85,0.85,0,0,1-.25.4,0.07,0.07,0,0,0,0,.06,0.24,0.24,0,0,0,.1.15,0.35,0.35,0,0,0,.2.1,1.33,1.33,0,0,0,1.17-.89c0.34-.58.54-0.93,0.6-1.06a1.44,1.44,0,0,1-1,.35,1.28,1.28,0,0,1-.88-0.31,1.16,1.16,0,0,1-.36-0.95,2.58,2.58,0,0,1,.82-1.78,2.45,2.45,0,0,1,1.78-.78,2.17,2.17,0,0,1,.79.15,1.68,1.68,0,0,1,.94,1.78,3,3,0,0,1-.59,1.89,8.89,8.89,0,0,1-1.33,1.42,3.3,3.3,0,0,1-2.08.8h-0.28a0.94,0.94,0,0,1-.66-0.35,1.06,1.06,0,0,1-.26-0.7,1,1,0,0,1,.19-0.58,0.59,0.59,0,0,1,.49-0.26Zm2.71-3.48a0.32,0.32,0,0,0-.15,0,1.28,1.28,0,0,0-.86,1,2.61,2.61,0,0,0-.21.9,0.43,0.43,0,0,0,.4.52,0.67,0.67,0,0,0,.64-0.38,4.5,4.5,0,0,0,.27-0.83,6.2,6.2,0,0,0,.19-0.82A0.41,0.41,0,0,0,251.83,269.95Z" transform="translate(-141.55 -169.88)"/>
      <path class="cls-1" d="M253.6,273.43a0.48,0.48,0,0,1,.35.21,0.36,0.36,0,0,1,.08.32,0.85,0.85,0,0,1-.25.4,0.07,0.07,0,0,0,0,.06,0.24,0.24,0,0,0,.1.15,0.35,0.35,0,0,0,.2.1,1.33,1.33,0,0,0,1.17-.89q0.51-.87.6-1.06a1.44,1.44,0,0,1-1,.35,1.28,1.28,0,0,1-.88-0.31,1.16,1.16,0,0,1-.36-0.95,2.58,2.58,0,0,1,.82-1.78,2.44,2.44,0,0,1,1.78-.78,2.16,2.16,0,0,1,.79.15,1.68,1.68,0,0,1,.95,1.78,3,3,0,0,1-.59,1.89,8.85,8.85,0,0,1-1.33,1.42,3.3,3.3,0,0,1-2.08.8h-0.28A0.94,0.94,0,0,1,253,275a1.06,1.06,0,0,1-.26-0.7,1,1,0,0,1,.19-0.58,0.59,0.59,0,0,1,.49-0.26Zm2.71-3.48a0.33,0.33,0,0,0-.15,0,1.28,1.28,0,0,0-.86,1,2.61,2.61,0,0,0-.21.9,0.43,0.43,0,0,0,.4.52,0.67,0.67,0,0,0,.64-0.38,4.47,4.47,0,0,0,.27-0.83,6,6,0,0,0,.19-0.82A0.41,0.41,0,0,0,256.3,269.95Z" transform="translate(-141.55 -169.88)"/>
      <path class="cls-1" d="M258.06,273.43a0.48,0.48,0,0,1,.35.21,0.36,0.36,0,0,1,.08.32,0.85,0.85,0,0,1-.25.4,0.07,0.07,0,0,0,0,.06,0.25,0.25,0,0,0,.1.15,0.35,0.35,0,0,0,.2.1,1.33,1.33,0,0,0,1.17-.89q0.51-.87.6-1.06a1.44,1.44,0,0,1-1,.35,1.27,1.27,0,0,1-.88-0.31,1.16,1.16,0,0,1-.37-0.95,2.58,2.58,0,0,1,.82-1.78,2.45,2.45,0,0,1,1.77-.78,2.16,2.16,0,0,1,.79.15,1.68,1.68,0,0,1,.94,1.78,3,3,0,0,1-.59,1.89,8.91,8.91,0,0,1-1.33,1.42,3.31,3.31,0,0,1-2.08.8h-0.28a0.94,0.94,0,0,1-.66-0.35,1.06,1.06,0,0,1-.26-0.7,1,1,0,0,1,.19-0.58,0.59,0.59,0,0,1,.49-0.26Zm2.71-3.48a0.32,0.32,0,0,0-.15,0,1.28,1.28,0,0,0-.86,1,2.6,2.6,0,0,0-.21.9,0.43,0.43,0,0,0,.4.52,0.67,0.67,0,0,0,.64-0.38,4.64,4.64,0,0,0,.27-0.83,6.3,6.3,0,0,0,.19-0.82A0.41,0.41,0,0,0,260.77,269.95Z" transform="translate(-141.55 -169.88)"/>
    </g>
  </g>
  <path class="cls-1" d="M341.38,191.63a0.26,0.26,0,0,0-.15-0.13,244,244,0,0,0-198.4-1.06,3.06,3.06,0,0,0-.68.44,0.65,0.65,0,0,0-.59.68L159,248.92l3.4,11.22a0.68,0.68,0,0,0,.86.3,4.31,4.31,0,0,0,1.9-.17,189.16,189.16,0,0,1,134.73-7.39c5.65,1.83,11.31,4,16.8,6.42a7.71,7.71,0,0,0,.8.47,2.63,2.63,0,0,0,.72.46,0.5,0.5,0,0,0,.34.11l0.28,0a1.22,1.22,0,0,0,1.12-1.15,2.05,2.05,0,0,0,.08-0.28l18.28-56.34,3.29-10.14A0.79,0.79,0,0,0,341.38,191.63ZM318.31,258a193.45,193.45,0,0,0-129.42-7.6,191.22,191.22,0,0,0-25,9.32v0q-8.69-28.68-17.38-57.36l-3.26-10.75a6.92,6.92,0,0,0,2.14-.6A237.64,237.64,0,0,1,279.34,175.1,234.54,234.54,0,0,1,337,193a1.86,1.86,0,0,0,.42.13,2.53,2.53,0,0,1,.89,1,4.28,4.28,0,0,1-.12,2.51,0.67,0.67,0,0,0,0,.14L321.24,249Z" transform="translate(-141.55 -169.88)"/>
  <g>
    <path class="cls-1" d="M201.42,205.33a13.17,13.17,0,0,0,0-1.55,1.25,1.25,0,0,0-1.34-1.32,9.31,9.31,0,0,0-2.67.38l-1.12.25-3.8.63a4.38,4.38,0,0,1-2-.29c-0.21-.53-0.35-1.12-0.49-1.52-0.08-.24-0.16-0.49-0.24-0.74,0-.05,0-0.1,0-0.13-0.19-1-.35-1.91-0.5-2.88a77.84,77.84,0,0,0-1.08-10,0.2,0.2,0,0,0-.22-0.1c0-.09-0.08-0.17-0.3-0.19a8.2,8.2,0,0,0-4.07.73,7,7,0,0,0-1.38.2,0.63,0.63,0,0,0-.36,0c-0.21,0-.61.16-0.56,0.44,0.27,1.68.78,3.29,1,5,0.27,2.23.5,4.43,0.85,6.65,0.31,2,.57,4,0.83,6,0.17,1.29.11,2.8,0.89,3.9a0.31,0.31,0,0,0,.23.11,0.43,0.43,0,0,0,.21.06,27.27,27.27,0,0,0,4.26-.56c2-.28,4.08-0.43,6.13-0.63a46.27,46.27,0,0,0,5.09-.74,1.05,1.05,0,0,0,1-1.1C201.74,207,201.4,206.22,201.42,205.33Z" transform="translate(-141.55 -169.88)"/>
    <path class="cls-1" d="M227,190.28c-0.21-1.77.13-3.6-.2-5.32a0.26,0.26,0,0,0-.07-0.13,0.29,0.29,0,0,0-.31-0.3c-1.95-.37-3.88.19-5.83,0.12a0.69,0.69,0,0,0-.42.15,0.58,0.58,0,0,0-.52.4,21.22,21.22,0,0,0,.14,3.81c0.06,1.8.28,3.58,0.37,5.38a16.16,16.16,0,0,1-.32,5.44,4.46,4.46,0,0,1-.33.76,4.63,4.63,0,0,1-1.11.79,4.41,4.41,0,0,1-3.39.25,4.55,4.55,0,0,1-1.46-.81l-0.14-.13a10.57,10.57,0,0,1-1.4-4.39,72.49,72.49,0,0,1-.71-10.49c0-.11-0.18-0.13-0.39-0.11a0.25,0.25,0,0,0-.23-0.26,5.37,5.37,0,0,0-2.55.08,7.21,7.21,0,0,0-1.65.48,6.24,6.24,0,0,0-1.54.22,0.76,0.76,0,0,0-.68.34c0.09,0.83.15,1.68,0.2,2.55,0,0.39,0,.79.07,1.19,0.29,5.14.54,10.56,4,14.45,1.12,1.27,4,3,5.86,2.89l0.54-.07a10.37,10.37,0,0,0,2.23.08,10.53,10.53,0,0,0,6.94-3.3,10.6,10.6,0,0,0,.74-0.88,0.42,0.42,0,0,0,.11-0.1,12.85,12.85,0,0,0,2.42-8A43.91,43.91,0,0,0,227,190.28Z" transform="translate(-141.55 -169.88)"/>
    <path class="cls-1" d="M184.4,238c0.8-2.75-.05-6.22-0.63-8.92-0.29-1.38-.84-2.91-1.22-4.44l-0.24-1.33a14.41,14.41,0,0,0-.18-1.89c0.14-.67.18-1.42-0.52-1.52a1,1,0,0,0-.25,0,9.56,9.56,0,0,0-2.21.37l-0.27,0a9.18,9.18,0,0,0-2.58.53l-0.09,0c-0.26.07-.52,0.15-0.77,0.24a0.47,0.47,0,0,0-.17.1c-0.22,0-.44.16-0.39,0.3,0.41,1.22.76,2.46,1.14,3.69,0,0.08,0,.17.05,0.25a0.06,0.06,0,0,0,0,0v0a3.84,3.84,0,0,0,.24.65l0.19,0.54c0.29,1.06.42,2.23,0.62,3.23a24,24,0,0,0,.72,2.7l0.07,0.35c0,1.23.52,2.69,0.21,3.86a1.28,1.28,0,0,1-2,.4,3.49,3.49,0,0,1-.36-0.45,0.71,0.71,0,0,1-.07-0.26,0.28,0.28,0,0,0-.25-0.19,10.42,10.42,0,0,0-3.28.69,6.46,6.46,0,0,0-.81.26,13.14,13.14,0,0,1-1.52.3,0.44,0.44,0,0,0-.39.3,0.2,0.2,0,0,0-.07.07c-0.14.3,0.57,1.34,0.72,1.66a6,6,0,0,0,.86,1.35,2.44,2.44,0,0,0,.55.47,7.54,7.54,0,0,0,1,.85,3.32,3.32,0,0,0,2,1.2,5.67,5.67,0,0,0,2.25.24,7.36,7.36,0,0,0,5.74-2.2,0.06,0.06,0,0,0,0,0A6.15,6.15,0,0,0,184.4,238Z" transform="translate(-141.55 -169.88)"/>
    <path class="cls-1" d="M251.44,199.78c0.18-3.51.22-7,.23-10.5a0.18,0.18,0,0,0,0,0,19.05,19.05,0,0,0,.09-5,0.3,0.3,0,0,0-.34-0.16c-2,.25-4-0.75-5.93-0.12a0.39,0.39,0,0,0-.26.22,0.49,0.49,0,0,0-.39.37c0,3-.27,6.28.22,9.25q-5.69-5.35-11.6-10.46a0,0,0,0,0,0,0,6,6,0,0,0-.57-0.65,1.08,1.08,0,0,0-.4-0.38h0a0.22,0.22,0,0,0-.11,0,0.25,0.25,0,0,0-.23.25h0v0a0.17,0.17,0,0,0,0,0h0c0.63,3.42.29,7,.54,10.46a11.15,11.15,0,0,0-.19,2.82,35.05,35.05,0,0,0,.73,10.33v0.08h0a0.53,0.53,0,0,0,.45,0c2,0,4.88.23,5.35-.11a0.58,0.58,0,0,0,.5-0.24,1.14,1.14,0,0,0,0-.27,5.39,5.39,0,0,0,.19-2.46c-0.07-2.13-.54-4.21-0.53-6.32a12.53,12.53,0,0,0,2.23,2.07c1.67,1.43,3.4,2.87,5,4.43a0.16,0.16,0,0,0,0,0c0.23,0.32.46,0.62,0.71,0.93l0,0a19.34,19.34,0,0,0,3.77,3.77l0.08,0a0.52,0.52,0,0,0,.7-0.23,5.93,5.93,0,0,0,0-2.49A29,29,0,0,1,251.44,199.78Z" transform="translate(-141.55 -169.88)"/>
    <path class="cls-1" d="M325.43,210l0-.12c0.26-.63.73-1.39,0.09-1.9a3,3,0,0,0-1.82-.46c-1.34-.27-3.2-0.53-5-0.78h0a13.88,13.88,0,0,1-1.62-.42c-0.65-.2-1.23,0-1.79-0.57l0,0a2.81,2.81,0,0,1,.2-0.85,12,12,0,0,0,.48-3c0.22-2.2.91-4.29,1-6.51,0.24-.74.48-1.48,0.71-2.21s0.83-2.27.18-2.76l-0.06,0c-0.51-.85-2.27-0.86-3.38-0.82-0.35-.08-0.71-0.16-1.07-0.23a5.06,5.06,0,0,0-1.49-.14,0.69,0.69,0,0,0-.67.21v0l-0.07,0c-0.59.49-.4,1.42-0.38,2.09s0,1,.1,1.53a15.94,15.94,0,0,1-.57,3.08,22.79,22.79,0,0,0-.56,3.42c-0.22,1.52-.64,3-1,4.46-0.46,2.14-.31,4.4-1,6.5-0.23.7,0.88,0.64,1.54,0.57q5.32,0.91,10.63,1.87a11.67,11.67,0,0,0,4.39.92h0a0.57,0.57,0,0,0,.55-0.24c0.05-1,.34-1.91.43-2.88a5.89,5.89,0,0,1,.1-0.64Z" transform="translate(-141.55 -169.88)"/>
    <path class="cls-1" d="M265.41,223.61a1.77,1.77,0,0,0-.07-0.69h0c-0.08-.55-0.87-0.59-1.51-0.41a7,7,0,0,0-2.06.15q-2.51-.11-5-0.18a10,10,0,0,0-3.08-.26h0a0.67,0.67,0,0,0-.78.74c0,0.32.1,0.63,0.17,0.95a5,5,0,0,0,.08.73c0,0.23.08,0.41,0.11,0.55a10.89,10.89,0,0,0,.19,2.87,1,1,0,0,0,1.09.33c0.89-.08,2.42-0.21,3.2.35a6.55,6.55,0,0,1-.68.76,5.7,5.7,0,0,1-1.22.81c-0.15.07-.3,0.13-0.46,0.19l-0.32,0a15.06,15.06,0,0,0-1.83.06l-0.41,0a4.06,4.06,0,0,0-.54-0.07,5.48,5.48,0,0,1-4.46-3.22c-1.47-3.45,1.09-6.45,4.51-7.55l0.51,0a10.31,10.31,0,0,1,3.63,1.08c0.25,0.29.49,0.6,0.74,0.94a0.24,0.24,0,0,0,.3,0,25.85,25.85,0,0,0,3.73-3.39h0a1.88,1.88,0,0,0,.76-0.84c0.32-.81-1-1.42-1.72-1.69a8.23,8.23,0,0,0-4.5-1.63,12.75,12.75,0,0,0-2.47-.28,12.55,12.55,0,0,0-3.3.36l-0.68.19a4.39,4.39,0,0,0-2,.71l-0.29.14a13.77,13.77,0,0,0-4.52,2.9A5.44,5.44,0,0,0,241.1,222a14.66,14.66,0,0,0-.26,4.67,0.83,0.83,0,0,0,0,.18,5.47,5.47,0,0,0,.36,1.74A9.6,9.6,0,0,0,246,234.4a12.31,12.31,0,0,0,1.08.71,12.11,12.11,0,0,0,14.17-1.47,11.83,11.83,0,0,0,1.94-2.23,11.62,11.62,0,0,0,.93-1.68,15.68,15.68,0,0,0,1.09-2A7.65,7.65,0,0,0,265.41,223.61Zm-0.2-.72h0Zm-0.11-.07,0,0,0.08,0h0Zm-1.5-.26h0C263.64,222.55,263.64,222.56,263.6,222.56Zm-5.9-1.43h0.08l-0.11,0Zm-14.82-1.95h0v0ZM264.72,228v0l0.08-.2v0Z" transform="translate(-141.55 -169.88)"/>
    <path class="cls-1" d="M235.75,235.43v0a5.37,5.37,0,0,0-.18-2,30.23,30.23,0,0,0-.26-5.14q-0.09-2.66-.18-5.33a22,22,0,0,0,.24-3,14.6,14.6,0,0,0-.16-2.13c0-.84,0-1.67.07-2.5s-0.22-1.23-.89-1l-0.22,0a11.45,11.45,0,0,0-3.17.1c-0.42,0-.84.06-1.26,0.11a1.18,1.18,0,0,0-1.1.16c-0.1,0-.19.11-0.14,0.16a1.53,1.53,0,0,0,.1,1,4.77,4.77,0,0,1,.12.63l0.08,1.5c0,0.69,0,1.39,0,2a28.25,28.25,0,0,1,.11,4.46q-4-3.41-8.17-6.69l0,0c-0.75-.76-1.62-1.45-2.41-2.18a8,8,0,0,0-.89-0.68l-0.27-.31a4.15,4.15,0,0,1-1-1,0.53,0.53,0,0,0-.48-0.3,0.49,0.49,0,0,0-.7.4,2.13,2.13,0,0,0,0,.7,14.78,14.78,0,0,0,.33,3,5.52,5.52,0,0,0,.23,1c0,0.48,0,1,0,1.41a42.59,42.59,0,0,0,.71,6.73c0.13,2.74.29,5.47,0.56,8.16a0.6,0.6,0,0,0,0,.25c0,0.49.16,1,.21,1.45a2.37,2.37,0,0,0,.08.44l0.06,0.45a0.54,0.54,0,0,0,0,.26v0l0,0,0,0.05a0.73,0.73,0,0,0,.1.12h0l0,0,0.1,0.09a1.6,1.6,0,0,0,1.22.22,3.18,3.18,0,0,0,1.06,0l0.86-.14a6.16,6.16,0,0,0,.88-0.23,9,9,0,0,0,1.78-.22,0.62,0.62,0,0,0,.29-1h0a27.43,27.43,0,0,0-.25-4c0-.4,0-0.8-0.05-1.2,0-1-.29-2.35-0.28-3.52h0l0.14-.12,0.21,0a0.2,0.2,0,0,0,.12,0l2.41,2,0.35,0.41a13,13,0,0,0,3.2,2.63q1.57,1.36,3.11,2.74h0a2.14,2.14,0,0,0,.5.57c0.3,0.26.42,0.64,0.73,0.88s0.51,0.5.8,0.72a4.31,4.31,0,0,1,1,.84,0.24,0.24,0,0,0,.36-0.1A14.09,14.09,0,0,0,235.75,235.43Z" transform="translate(-141.55 -169.88)"/>
    <path class="cls-1" d="M179.58,208.83a3.08,3.08,0,0,0-1.34-1.11c-0.2-.1-0.39-0.22-0.57-0.33-0.81-.65-1.69-1.23-2.52-1.83s-1.5-1.14-2.23-1.73a7.05,7.05,0,0,1-1.93-1.73,3.92,3.92,0,0,1,0-.7c0.62-1.2,1.51-2.2,2.24-3.36,1-1.64,1.87-3.74,3.21-5.13a0.27,0.27,0,0,0,0-.42c-1.44-1.24-3-2.58-4.9-3a0.55,0.55,0,0,0-.19,0h-0.13a0.76,0.76,0,0,0-.55.25,42.49,42.49,0,0,1-3,5c-1.26,1.62-2,3.63-3.35,5.14a33.39,33.39,0,0,1-.9-3.48c-0.13-.63-0.18-1.28-0.29-1.91a3.47,3.47,0,0,0-.09-0.36,4.74,4.74,0,0,0-.24-1.73,0.51,0.51,0,0,0-.63-0.11l-0.23,0-3.8.77a5.5,5.5,0,0,0-1,.26h0a1.14,1.14,0,0,0-.91.28,1.46,1.46,0,0,0,0,1.07c-0.2,1,2.6,13.78,2.87,14.52a37.13,37.13,0,0,0,.7,3.92,2.87,2.87,0,0,0,.52,1.78,1,1,0,0,0,.27.35h0l0.12,0.09a0.59,0.59,0,0,0,.19.09,1.18,1.18,0,0,0,.42.11,9.16,9.16,0,0,0,4.61-1.17,1.51,1.51,0,0,0,1.31-1,0.48,0.48,0,0,0,0-.41,17.21,17.21,0,0,0-.55-2.43c-0.26-1.52-.65-3-1-4.44q1.57,1.19,3.12,2.39a16.43,16.43,0,0,1,1.47,1.55c1.3,1.6,3.16,2.34,4.7,3.6a0.62,0.62,0,0,0,.61,0,2.88,2.88,0,0,0,1.26-1.37,27.93,27.93,0,0,1,2.54-3.13,0.4,0.4,0,0,0,.1-0.18C179.55,209,179.61,208.89,179.58,208.83Z" transform="translate(-141.55 -169.88)"/>
    <path class="cls-1" d="M281.76,194.12a0.92,0.92,0,0,0-1.15-.78h0c-0.86-.56-2.41-0.34-3.37-0.33a0.6,0.6,0,0,0-.29.08c-0.48,0-.92.05-1.28,0a26.75,26.75,0,0,1-5.36-.37,0.69,0.69,0,0,0-.42.05,0.6,0.6,0,0,0-.44.18,2.18,2.18,0,0,0-.09.42,0.65,0.65,0,0,0-.06.2,38.06,38.06,0,0,1-.41,4.81,0.58,0.58,0,0,0,.42.71,0.67,0.67,0,0,0,.41.2,6.09,6.09,0,0,0,2.74-.33l0.12-.06a1.18,1.18,0,0,1,.86.54l0,0.1a5.54,5.54,0,0,1-.57.57,5.71,5.71,0,0,1-1.24.76,6,6,0,0,1-1.39.43,6.17,6.17,0,0,1-1.44.09,5.71,5.71,0,0,1-2.21-.57,6,6,0,0,1-1.78-1.3,5.86,5.86,0,0,1-1.17-1.84,5.28,5.28,0,0,1-.37-2.2,5.18,5.18,0,0,1,.56-2.16,5.65,5.65,0,0,1,1.34-1.73,6,6,0,0,1,1.94-1.12,5.84,5.84,0,0,1,2.31-.32,5.76,5.76,0,0,1,4.06,1.9c1.52-1.27,4.58-3.25,4.62-3.79a8.35,8.35,0,0,0-1.69-1.53,11.9,11.9,0,0,0-2-1.2,12.49,12.49,0,0,0-4.68-1.19,12.65,12.65,0,0,0-2.12.06c-1.08-.26-2.14.31-3.14,0.65a7.65,7.65,0,0,0-1.06.45c-1.21.15-2.53,1.59-3.37,2.23a5.89,5.89,0,0,0-1.42,1.61,0.34,0.34,0,0,0-.2.18c-0.2.54-.44,1.07-0.67,1.6a6.39,6.39,0,0,0-.37.9,6,6,0,0,0-.46,2.6,0.17,0.17,0,0,0-.05.11,2.53,2.53,0,0,0,0,.5c0.16,3.45,1.54,7.07,4.33,9a11.73,11.73,0,0,0,4.19,2.38l0.75,0.22,0.19,0.08a7.8,7.8,0,0,0,2.87.29,11.9,11.9,0,0,0,5-1.13,6.23,6.23,0,0,0,4.58-3.77l0.06-.07,0.18-.27,0.07,0a9.38,9.38,0,0,0,1.94-3.56,11.88,11.88,0,0,0,.4-3.21A2.62,2.62,0,0,0,281.76,194.12Z" transform="translate(-141.55 -169.88)"/>
    <path class="cls-1" d="M305.63,188.15a0.47,0.47,0,0,0-.43-0.42c-0.5-.08-1-0.15-1.51-0.21-3-1.22-6.8-1.21-10.44-1.16l-0.35,0c-1.5-.16-3.23.12-4.68-0.18a0.6,0.6,0,0,0-.39,0,0.41,0.41,0,0,0-.37.38s0,0.09,0,.14a0.6,0.6,0,0,0,0,.22,61.05,61.05,0,0,1-.64,10c-0.41,3.59-1.08,7.27-1.24,10.89a0.58,0.58,0,0,0,.53.83,11.9,11.9,0,0,0,1.51-.14,3.62,3.62,0,0,1,.62-0.09q5.44,0.63,10.88,1.31a13.22,13.22,0,0,0,2.13.33,1.33,1.33,0,0,0,1.53.08,1.13,1.13,0,0,0,.32-1.16c0-.39,0-0.77,0-1.14,0.15-.85.23-1.71,0.35-2.57,0.09-.33.18-0.66,0.28-1,0-.1-0.07-0.15-0.22-0.14l-0.06,0c-1.49-.49-3.22-0.29-4.77-0.57a42,42,0,0,0-5.83-.54c0.08-.7.23-1.4,0.27-2.11l4.39,0.53,0.73-5.77-4.28-.51c0.05-.74-0.09-1.52,0-2.26,2.35,0.27,4.78.69,7.13,1a4.81,4.81,0,0,0,.47.26,5,5,0,0,0,3.27,0,0.6,0.6,0,0,0,.18-0.14,0.34,0.34,0,0,0,.21-0.25,37.7,37.7,0,0,0,.52-5.3A0.24,0.24,0,0,0,305.63,188.15Z" transform="translate(-141.55 -169.88)"/>
    <path class="cls-1" d="M209.5,234.47a8,8,0,0,0,.94-2.55c0.06-.24.12-0.48,0.16-0.72a9.75,9.75,0,0,0,.1-2.8l-0.09-.82a42,42,0,0,0-.38-6.76c0-.29-0.06-0.58-0.09-0.86a0.07,0.07,0,0,0,0,0,10.41,10.41,0,0,0-.26-3.28,0.65,0.65,0,0,0-.11-0.29l-0.05-.14a0.07,0.07,0,0,0-.06,0,0.49,0.49,0,0,0-.44-0.16c-1.86.2-3.93,0.71-5.81,0.48a0.54,0.54,0,0,0-.5.85c0.09,0.93.41,2.09,0.48,3,0.11,1.46.49,2.87,0.56,4.33,0.05,1.07.13,2.13,0.24,3.2a10.66,10.66,0,0,1-.32,4.19l-0.14.19a4.55,4.55,0,0,1-1.28,1.1,4.38,4.38,0,0,1-1.65.57,4.33,4.33,0,0,1-1.72-.11,4.57,4.57,0,0,1-1.52-.72,4.46,4.46,0,0,1-1.14-1.21,4,4,0,0,1-.59-1.59q-0.44-3-.88-5.91c0-1.08-.07-2.17-0.2-3.24-0.08-.66-0.06-2.15-0.55-2.79l-0.05-.12,0-.08a0.1,0.1,0,0,0-.07-0.07l0,0a0.26,0.26,0,0,0-.33,0,17.37,17.37,0,0,0-3.38.58,12.57,12.57,0,0,0-2.28.39H188l-0.19,0a0.2,0.2,0,0,0-.19.15,0.11,0.11,0,0,0-.09.08c0.07,0.3.13,0.6,0.19,0.89a21.34,21.34,0,0,0,1,6.2c0,0.16,0,.32.06,0.48a15.77,15.77,0,0,0,.55,3.28l0.1,0.29c0.11,2,1.09,5.13,3,6.24a7.21,7.21,0,0,0,1.44,1.27,9.2,9.2,0,0,0,5.85,2.09,5.15,5.15,0,0,0,1.11.09l0.44,0a5.28,5.28,0,0,0,1.13-.2c0.45-.1.89-0.21,1.3-0.29a7.23,7.23,0,0,0,5-3.83l0.32-.47A8.07,8.07,0,0,0,209.5,234.47Z" transform="translate(-141.55 -169.88)"/>
    <path class="cls-1" d="M287.92,233.06c0-.87-1.09-1-1.85-1a0.53,0.53,0,0,0-.34-0.22c-1.59-.34-3.33.07-5,0-1.15-.06-2.28-0.19-3.42-0.32a1.87,1.87,0,0,1-.6-1.16L277,228c0.17-1.17.37-2.33,0.57-3.5a24.42,24.42,0,0,0,.23-4.4c0-.77.21-1.76,0.16-2.63,0.06-.37.13-0.74,0.2-1.11,0.16-.82-0.24-1.09-0.95-0.8-1.82-.14-3.6-0.75-5.45-0.52h0a0.34,0.34,0,0,0-.38.1c-0.3,1.81,0,3.69-.24,5.52-0.28,2.33-.23,4.67-0.48,7-0.18,1.68-.22,3.38-0.28,5.07,0,0.44-.08,1-0.09,1.61l0,0.08,0,0a4.59,4.59,0,0,0-.08.64s0,0.06,0,.1v0.08c-0.35.66-.58,1.77,0.17,2a5.59,5.59,0,0,0,2.31,0c2,0.1,3.87.36,5.82,0.55a7.89,7.89,0,0,0,1.14,0s0,0,0,0a36.91,36.91,0,0,0,5.55.68,3.88,3.88,0,0,0,1,0,0.67,0.67,0,0,0,.53,0,0.36,0.36,0,0,0,.47-0.34,2.3,2.3,0,0,0,0-.7,17.44,17.44,0,0,1,.24-2.4A10.45,10.45,0,0,0,287.92,233.06Zm-13.43,4.31a6.84,6.84,0,0,1-1.24-.11Z" transform="translate(-141.55 -169.88)"/>
    <path class="cls-1" d="M313,221.14a1.11,1.11,0,0,0-.54-1.24,0.65,0.65,0,0,0-.33-0.22l-0.15,0a4.4,4.4,0,0,0-1-.24,30.33,30.33,0,0,0-8-1.27c-1.63-.26-3.25-0.52-4.86-0.79-0.7-.12-3.22-1.32-3.76-0.2a5.19,5.19,0,0,0-.32,2.49c-0.15,1-.22,2-0.29,3a0.59,0.59,0,0,0,0,.26c0,0.56,0,1.07,0,1.5a15,15,0,0,0-.2,2.9,18.65,18.65,0,0,0-.41,3.55,0.1,0.1,0,0,0,0,0,17.09,17.09,0,0,0-.32,3.44l-0.21,1.19-0.13.73a4.65,4.65,0,0,0-.4,1.49c-0.37.9-.59,1.83,0.29,2a9.24,9.24,0,0,0,2.45.12,18.2,18.2,0,0,0,2.3.18q3.64,0.57,7.27,1.17a22.13,22.13,0,0,0,2.91.49l0.13,0,0.54,0.2,0.06,0a0.6,0.6,0,0,0,.51.14h0a0.28,0.28,0,0,0,.14,0h0A0.57,0.57,0,0,0,309,242a0.73,0.73,0,0,0,.37-0.29,0.77,0.77,0,0,0,.08-0.46,1.79,1.79,0,0,0,0-.86,3.39,3.39,0,0,1,0-.54q0.09-.49.16-1c0-.19.06-0.38,0.08-0.57l0-.15a12.39,12.39,0,0,0,.44-1.65,0,0,0,0,0,0-.06,0.33,0.33,0,0,0-.28-0.38h0a0.83,0.83,0,0,0-.3-0.09l-1.08-.22c-0.36-.08-0.72-0.09-1.08-0.17l-0.16,0a0.08,0.08,0,0,0-.05-0.07,7.31,7.31,0,0,0-2.41-.45c-0.76-.1-1.52-0.15-2.29-0.19s-1.53-.26-2.3-0.42-1-.3-0.86-0.79a1.63,1.63,0,0,1,.34-1.14c0.65,0.15,1.31.29,2,.41a4.11,4.11,0,0,0,1.73.33h0a1,1,0,0,0,1.21-.17,0.57,0.57,0,0,0,.06-0.19,0.86,0.86,0,0,0,.14-0.65,3.3,3.3,0,0,0,.16-0.69,12.7,12.7,0,0,0,.28-2.79,4.37,4.37,0,0,0,.2-1.05,0.8,0.8,0,0,0,.06-0.4A0.4,0.4,0,0,0,305,227a1.81,1.81,0,0,0-.33-0.09h0a0.12,0.12,0,0,0-.1,0l-0.47-.07c-1-.17-2.65,0-3.48-0.75a3.81,3.81,0,0,1,.12-0.64c0.07-.27.06-0.59,0.11-0.88,0.94,0.11,1.89.11,2.84,0.28,0.55,0.1,1.08.23,1.6,0.35h0l0.17,0c0.39,0.09.79,0.16,1.2,0.22a5.24,5.24,0,0,0,1,.19,20.65,20.65,0,0,0,3.14.53c0.65,0.17,1.22.37,1.55-.42a7.32,7.32,0,0,0,.44-2.77,5.81,5.81,0,0,0,.09-1.47,0.58,0.58,0,0,0,.07-0.18c0-.05,0-0.11,0-0.16h0Zm-12.29,5.38h0l0,0h0Zm0.13,5.92h0Z" transform="translate(-141.55 -169.88)"/>
  </g>
</svg>
